<svg width="243" height="65" viewBox="0 0 243 65" fill="none" xmlns="http://www.w3.org/2000/svg">
<path d="M82.1864 22.5733H84.0564C84.2096 22.5733 84.2096 22.6046 84.2096 22.7297V31.4526H75.197V22.7297C75.197 22.5733 75.2277 22.5733 75.3503 22.5733H77.2203V21.354H69.8937V22.5733H71.733C71.8556 22.5733 71.8863 22.6046 71.8863 22.6046C71.8863 22.6046 71.8863 22.6359 71.8863 22.6671V41.7701C71.8863 41.9264 71.8556 41.9264 71.733 41.9264H69.8937V43.1457H77.2203V41.9264H75.3503C75.197 41.9264 75.197 41.8951 75.197 41.7701V33.0471H84.2096V41.7701C84.2096 41.9264 84.179 41.9264 84.0564 41.9264H82.1864V43.1457H89.513V41.9264H87.6737C87.5204 41.9264 87.5204 41.8951 87.5204 41.7701V22.6671C87.5204 22.6046 87.5204 22.6046 87.5204 22.6046C87.5204 22.6046 87.5817 22.5733 87.6737 22.5733H89.513V21.354H82.1864V22.5733Z" fill="#fff"/>
<path d="M98.0658 27.6069C96.0119 27.6069 94.3258 28.326 93.0383 29.7642C91.7508 31.2024 91.1071 33.1408 91.1071 35.5795C91.1071 38.0182 91.7508 39.9879 93.0383 41.3948C94.3258 42.833 96.0119 43.5521 98.0658 43.5521C100.12 43.5521 101.836 42.833 103.124 41.3948C104.411 39.9879 105.055 38.0182 105.055 35.5795C105.055 33.1408 104.411 31.1711 103.124 29.7642C101.806 28.326 100.12 27.6069 98.0658 27.6069ZM100.763 40.4569C100.028 41.6137 99.108 42.1764 98.0351 42.1764C96.9622 42.1764 96.0732 41.6137 95.3375 40.4569C94.5711 39.2688 94.2032 37.643 94.2032 35.5795C94.2032 33.516 94.5711 31.8902 95.3375 30.7022C96.0732 29.5454 96.9622 28.9826 98.0351 28.9826C99.108 28.9826 99.997 29.5454 100.763 30.7022C101.53 31.8902 101.928 33.516 101.928 35.5795C101.928 37.643 101.53 39.2688 100.763 40.4569Z" fill="#fff"/>
<path d="M128.721 41.8951C128.721 41.8951 128.721 41.8638 128.721 41.8325V33.0158C128.721 31.2024 128.292 29.858 127.464 28.9513C126.606 28.0446 125.594 27.6069 124.399 27.6069C122.253 27.6069 120.72 28.795 119.831 31.1711C119.616 30.2019 119.218 29.4516 118.666 28.8888C117.838 28.0446 116.827 27.6382 115.692 27.6382C113.7 27.6382 112.228 28.6699 111.309 30.7334V27.7633L110.941 27.8571C110.45 27.9821 109.531 28.0446 108.243 28.0446H106.312V29.264H108.182C108.335 29.264 108.335 29.2952 108.335 29.4203V41.8638C108.335 41.9263 108.335 41.9263 108.335 41.9263C108.335 41.9263 108.274 41.9576 108.182 41.9576H106.312V43.1769H112.872V41.9576H111.493C111.339 41.9576 111.339 41.9263 111.339 41.8013V37.6743C111.339 35.0167 111.677 32.9533 112.351 31.5776C112.995 30.2332 113.792 29.5766 114.773 29.5766C115.478 29.5766 116.03 29.7955 116.428 30.2957C116.827 30.796 117.041 31.5776 117.041 32.6406V41.8951C117.041 41.9576 117.041 41.9576 117.041 41.9576C117.041 41.9576 116.98 41.9888 116.888 41.9888H115.509V43.2082H122.069V41.9888H120.229C120.076 41.9888 120.076 41.9576 120.076 41.8325V37.7055C120.076 35.048 120.413 33.0158 121.088 31.6089C121.732 30.2645 122.529 29.6079 123.51 29.6079C124.215 29.6079 124.766 29.8267 125.165 30.327C125.563 30.8272 125.778 31.6089 125.778 32.6719V41.9263C125.778 41.9888 125.778 41.9888 125.778 41.9888C125.778 41.9888 125.717 42.0201 125.625 42.0201H124.215V43.2394H130.775V42.0201H128.936C128.752 41.9263 128.721 41.8951 128.721 41.8951Z" fill="#fff"/>
<path d="M143.711 38.7373C143.435 39.8316 142.945 40.6757 142.24 41.2698C141.535 41.8638 140.615 42.1452 139.481 42.1452C138.377 42.1452 137.519 41.5824 136.814 40.4569C136.109 39.3001 135.741 37.7055 135.71 35.6733H144.692L144.723 35.3919C144.753 34.8917 144.784 34.4227 144.784 34.0163C144.784 31.9528 144.324 30.3583 143.405 29.264C142.454 28.1697 141.167 27.6069 139.573 27.6069H139.266C137.427 27.6695 135.863 28.4198 134.607 29.7642C133.288 31.2024 132.614 33.1721 132.614 35.5795C132.614 38.0182 133.288 39.9566 134.607 41.3948C135.925 42.833 137.611 43.5521 139.603 43.5521C140.891 43.5521 142.056 43.1457 143.067 42.364C144.079 41.5824 144.723 40.4256 144.999 38.9874L145.06 38.6748L143.864 38.4246L143.711 38.7373ZM141.78 34.3602H135.741C135.833 32.8595 136.17 31.5776 136.814 30.5771C137.488 29.5454 138.224 29.0451 139.144 29.0451C140.983 29.0451 141.872 30.2957 141.872 32.8595C141.872 33.2346 141.841 33.7349 141.78 34.3602Z" fill="#fff"/>
<path d="M165.752 21.3226H155.207V22.542H155.697H157.046C157.169 22.542 157.199 22.5732 157.199 22.5732C157.199 22.5732 157.199 22.6045 157.199 22.6358V41.7387C157.199 41.895 157.169 41.895 157.046 41.895H155.207V43.1144H163.852V41.895H160.664C160.51 41.895 160.51 41.8638 160.51 41.7387V33.0158H166.703C166.733 33.0158 166.764 33.0783 166.795 33.2034L166.978 35.5795H168.174V28.8888H166.978L166.795 31.2337C166.764 31.4212 166.733 31.4212 166.703 31.4212H160.51V22.8859H166.917C167.438 22.8859 167.5 23.1047 167.53 23.3549L168.051 27.0441H169.37V25.1682C169.37 23.5425 169.676 21.0413 169.676 21.0413C169.676 21.0413 167.469 21.3226 165.752 21.3226Z" fill="#fff"/>
<path d="M184.145 41.7699V27.7007L183.777 27.7945C183.287 27.9195 182.367 27.9821 181.08 27.9821H179.149V29.2014H180.988C181.141 29.2014 181.141 29.2327 181.141 29.3577V33.4847C181.141 36.1422 180.773 38.1745 180.068 39.5814C179.394 40.9258 178.535 41.5824 177.493 41.5824C176.757 41.5824 176.206 41.3322 175.746 40.8633C175.317 40.363 175.071 39.5814 175.071 38.5497V27.7007L174.704 27.7945C174.213 27.9195 173.293 27.9821 172.006 27.9821H170.075V29.2014H171.914C172.067 29.2014 172.067 29.2327 172.067 29.3577V38.1119C172.067 39.9253 172.496 41.2697 173.324 42.1764C174.182 43.0831 175.225 43.5208 176.451 43.5208C178.597 43.5208 180.16 42.4578 181.08 40.363V43.3957L181.448 43.3019C181.938 43.1769 182.858 43.1143 184.145 43.1143H186.077V41.895H184.207C184.145 41.9263 184.145 41.895 184.145 41.7699Z" fill="#fff"/>
<path d="M195.978 34.7354L192.545 33.4222L192.453 33.391C191.441 32.9533 190.951 32.328 190.951 31.39C190.951 30.7647 191.165 30.2645 191.656 29.7955C192.116 29.3265 192.729 29.1077 193.465 29.1077C195.151 29.1077 196.009 29.7955 196.162 31.265L196.438 33.2972H197.603V31.6401C197.603 30.327 197.664 29.3891 197.787 28.8888L197.848 28.6074L197.603 28.5136C195.978 27.8883 194.507 27.5757 193.219 27.5757C191.87 27.5757 190.736 28.0759 189.847 29.0451C188.958 30.0144 188.498 31.1399 188.498 32.3905C188.498 33.2347 188.713 33.985 189.142 34.6728C189.571 35.3607 190.215 35.8609 191.043 36.1736L194.476 37.4867C195.61 37.9244 196.162 38.5497 196.162 39.4877C196.162 40.1755 195.886 40.7695 195.334 41.301C194.783 41.8325 194.047 42.1139 193.189 42.1139C191.257 42.1139 190.215 41.3636 190.031 39.8628L189.755 37.8306H188.529V39.4877C188.529 40.8008 188.468 41.7387 188.345 42.239L188.284 42.4891L188.529 42.5829C189.97 43.2082 191.533 43.5208 193.158 43.5208C194.813 43.5208 196.193 43.0206 197.174 42.0201C198.185 41.0196 198.676 39.8628 198.676 38.581C198.676 37.7368 198.431 36.9552 197.971 36.2674C197.511 35.5795 196.837 35.0793 195.978 34.7354Z" fill="#fff"/>
<path d="M203.213 24.8243C203.581 25.1995 204.01 25.3558 204.531 25.3558C205.052 25.3558 205.512 25.1682 205.849 24.8243C206.186 24.4804 206.37 24.0114 206.37 23.4799C206.37 22.9484 206.186 22.5107 205.849 22.1355C205.512 21.7603 205.052 21.604 204.531 21.604C204.01 21.604 203.55 21.7916 203.213 22.1355C202.845 22.5107 202.692 22.9484 202.692 23.4799C202.692 24.0114 202.845 24.4491 203.213 24.8243Z" fill="#fff"/>
<path d="M206.033 41.895C206.033 41.895 206.033 41.8637 206.033 41.8325V27.7007L205.665 27.7945C205.175 27.9195 204.255 27.9821 202.968 27.9821H201.036V29.2014H202.906C203.06 29.2014 203.06 29.2327 203.06 29.3577V41.7387C203.06 41.895 203.029 41.895 202.906 41.895H201.067V43.1143H208.087V41.895H206.248C206.064 41.9263 206.033 41.895 206.033 41.895Z" fill="#fff"/>
<path d="M217.13 27.6069C215.076 27.6069 213.39 28.326 212.103 29.7642C210.815 31.2024 210.172 33.1408 210.172 35.5795C210.172 38.0182 210.815 39.9879 212.103 41.3948C213.39 42.833 215.076 43.5521 217.13 43.5521C219.184 43.5521 220.901 42.833 222.188 41.3948C223.476 39.9879 224.12 38.0182 224.12 35.5795C224.12 33.1408 223.476 31.1711 222.188 29.7642C220.87 28.326 219.184 27.6069 217.13 27.6069ZM214.402 30.6709C215.138 29.5141 216.027 28.9513 217.1 28.9513C218.173 28.9513 219.092 29.5141 219.828 30.6709C220.594 31.859 220.993 33.516 220.993 35.5482C220.993 37.6117 220.594 39.2375 219.828 40.4256C219.092 41.5824 218.173 42.1452 217.1 42.1452C216.027 42.1452 215.138 41.5824 214.402 40.4256C213.636 39.2375 213.268 37.6117 213.268 35.5482C213.268 33.516 213.666 31.859 214.402 30.6709Z" fill="#fff"/>
<path d="M239.723 41.9263C239.6 41.9263 239.57 41.8951 239.57 41.8951C239.57 41.8951 239.57 41.8638 239.57 41.8325V33.0158V32.8907C239.539 31.1399 239.11 29.8267 238.313 28.9513C237.455 28.0446 236.412 27.6069 235.186 27.6069C233.04 27.6069 231.477 28.6699 230.557 30.796V27.732L230.189 27.8258C229.699 27.9508 228.779 28.0134 227.492 28.0134H225.56V29.2327H227.43C227.584 29.2327 227.584 29.264 227.584 29.389V41.8325C227.584 41.8951 227.584 41.8951 227.584 41.8951C227.584 41.8951 227.522 41.9263 227.43 41.9263H225.56V43.1457H232.121V41.9263H230.741C230.588 41.9263 230.588 41.8951 230.588 41.77V37.2053C230.588 34.7041 230.956 32.7344 231.661 31.4213C232.366 30.1394 233.194 29.5141 234.236 29.5141C234.972 29.5141 235.523 29.7642 235.983 30.2332C236.412 30.7334 236.658 31.5151 236.658 32.5468V41.8013C236.658 41.8638 236.658 41.8638 236.658 41.8638C236.658 41.8638 236.596 41.8951 236.504 41.8951H235.125V43.1144H241.685V41.8951L239.723 41.9263Z" fill="#fff"/>
<path d="M59.0112 32.4844C58.9805 27.9197 56.007 23.9178 51.7459 22.6672C51.9911 21.5729 52.1444 20.4787 52.1444 19.3844V12.0684H44.9098C39.0547 12.0684 33.7513 15.914 31.8507 21.4791C30.0114 15.914 24.8614 12.0684 19.1902 12.0684H12.2008V19.3844C12.2008 20.4787 12.3234 21.5417 12.5686 22.6047C8.09299 23.7615 4.99683 27.8259 4.99683 32.5782C4.99683 37.3305 8.09299 41.395 12.5686 42.5518C12.3234 43.5835 12.2008 44.6778 12.2008 45.7721V53.0568H19.4354C25.2905 53.0568 30.5939 49.2112 32.4945 43.646C34.3338 49.2112 39.4838 53.0568 45.155 53.0568H52.1138V45.7721C52.1138 44.6778 51.9911 43.5522 51.7459 42.4892C56.0376 41.2386 59.0112 37.1742 59.0112 32.5782V32.4844ZM41.4764 33.9851C44.8792 35.1732 47.6688 37.8933 49.0482 41.3324C45.1244 41.1136 41.9056 38.0183 41.4764 33.9851ZM49.4161 24.6994C47.8834 27.9197 44.9711 30.3897 41.5684 31.3589C42.3654 27.5133 45.6149 24.7307 49.4161 24.6994ZM50.6423 19.3218C50.6423 20.3223 50.5197 21.3541 50.2745 22.3546C49.8453 22.292 49.4161 22.2608 49.0176 22.2608C43.7756 22.2608 39.4225 26.419 39.024 31.7653C38.9014 31.7653 38.7788 31.7653 38.6868 31.7966H34.5177C34.8856 30.4209 36.2651 28.8264 38.4109 26.419L38.1963 26.2002C35.9892 28.2636 34.5177 29.608 33.2609 30.077V26.7004C33.2609 19.4782 39.0853 13.6003 46.228 13.6003H50.673V19.3218H50.6423ZM33.2302 39.2064C33.2302 39.1751 33.2302 39.1439 33.2302 39.1126V35.0482C34.4871 35.5484 35.9585 36.8615 38.1657 38.925L38.3803 38.7062C36.2344 36.2988 34.8549 34.7042 34.4871 33.3286H37.6752C38.1044 33.3286 38.5335 33.3598 39.024 33.4224C39.4532 38.7374 43.8062 42.8644 49.0176 42.8644C49.2015 42.8644 49.3855 42.8644 49.5694 42.8331C49.8759 43.99 50.0599 45.2093 50.0599 46.3974V51.4936H45.1857C38.7175 51.4936 33.3528 45.9909 33.2609 39.2377C33.2302 39.2689 33.2302 39.2377 33.2302 39.2064ZM57.6317 33.0159C57.6317 36.9241 55.0567 40.2694 51.3474 41.1448C49.9679 37.0491 46.8717 33.8601 42.9479 32.5157C46.5652 31.2026 49.4774 28.4512 51.0102 24.8558C54.8727 25.5749 57.6317 29.014 57.6317 33.0159ZM14.8984 40.4257C16.4005 37.268 19.1288 34.8918 22.4089 33.8914C21.6426 37.5181 18.5464 40.2382 14.8984 40.4257ZM22.5316 31.015C19.2515 29.7644 16.6151 27.1694 15.2663 23.7927C19.0675 24.1679 22.0717 27.1381 22.5316 31.015ZM13.7029 45.8033C13.7029 44.8028 13.8255 43.8024 14.0707 42.8331C14.408 42.8644 14.7145 42.8957 15.0517 42.8957C20.2631 42.8957 24.6468 38.7374 25.0453 33.3911C25.3212 33.3598 25.5664 33.3598 25.8117 33.3598H29.8888C29.5209 34.7355 28.1414 36.33 25.9956 38.7374L26.2102 38.9563C28.4173 36.8928 29.8888 35.5484 31.1457 35.0794V38.456C31.1457 45.6783 25.3212 51.5561 18.1785 51.5561H13.7029V45.8033ZM26.7313 31.7966C26.1795 31.7966 25.5971 31.7341 25.0146 31.6715C24.5548 26.3877 20.2018 22.292 15.0211 22.292C14.9291 22.292 14.8371 22.292 14.7452 22.292C14.4386 21.1665 14.2853 20.0409 14.2547 18.8841V13.6316H19.1288C25.7197 13.6316 31.0537 19.2281 31.0537 26.1064V30.1083C29.7968 29.608 28.3254 28.2949 26.1182 26.2314L25.9036 26.4503C28.0495 28.8577 29.429 30.4522 29.7968 31.8279H26.7313V31.7966ZM21.3667 32.6095C17.7187 33.9226 14.8065 36.7052 13.3044 40.3319C9.34986 39.7066 6.40696 36.205 6.40696 32.078C6.40696 28.0761 9.13527 24.6682 12.9365 23.8865C14.2853 28.0448 17.4122 31.2338 21.3667 32.6095Z" fill="#fff"/>
<path d="M31.7587 15.5387L32.1572 16.6017L32.5557 15.5387C33.8433 12.0995 34.8242 11.0678 38.1656 9.75466L39.1773 9.34822L38.1656 8.94177C34.8242 7.62864 33.8126 6.59689 32.5557 3.15774L32.1572 2.09473L31.7587 3.15774C30.4712 6.59689 29.4902 7.62864 26.1488 8.94177L25.1372 9.34822L26.1488 9.75466C29.4902 11.0678 30.5019 12.0995 31.7587 15.5387ZM28.6319 9.47327C30.226 8.69165 31.2069 7.7537 31.912 6.31551C32.6171 8.00382 33.3528 8.78544 34.9162 9.50454C33.5674 10.2549 32.5557 11.3492 31.9733 12.631C31.1456 11.0991 30.226 10.2236 28.6319 9.47327Z" fill="#fff"/>
<path d="M32.5557 49.4612L32.1572 48.3982L31.7587 49.4612C30.4712 52.9004 29.4902 53.9321 26.1488 55.2452L25.1372 55.6517L26.1488 56.0581C29.4902 57.3713 30.5019 58.403 31.7587 61.8422L32.1572 62.9052L32.5557 61.8422C33.8433 58.403 34.8242 57.3713 38.1656 56.0581L39.1773 55.6517L38.1656 55.2452C34.8242 53.9321 33.8433 52.9004 32.5557 49.4612ZM35.6826 55.5579C34.0885 56.3395 33.1075 57.2775 32.4025 58.7157C31.6974 57.0273 30.9617 56.2457 29.3983 55.5266C30.7471 54.7763 31.7587 53.682 32.3412 52.4001C33.1689 53.9321 34.0885 54.8075 35.6826 55.5579Z" fill="#fff"/>
</svg>
